<?xml version="1.0" encoding="utf-8"?>
<!-- Generator: Adobe Illustrator 18.0.0, SVG Export Plug-In . SVG Version: 6.00 Build 0)  -->
<!DOCTYPE svg PUBLIC "-//W3C//DTD SVG 1.1//EN" "http://www.w3.org/Graphics/SVG/1.1/DTD/svg11.dtd">
<svg version="1.1" id="Layer_1" xmlns="http://www.w3.org/2000/svg" xmlns:xlink="http://www.w3.org/1999/xlink" x="0px" y="0px"
	 viewBox="0 0 1.5 1.5" enable-background="new 0 0 1.5 1.5" xml:space="preserve">
<g>
	<polygon fill="#FFFFFF" points="0.7,0.8 0.7,0.8 0.7,0.9 0.7,0.9 0.7,0.9 0.7,0.9 0.7,0.9 0.7,0.8 	"/>
	<path fill="#FFFFFF" d="M0.7,0.5c-0.2,0-0.3,0.1-0.3,0.3S0.6,1,0.7,1S1,0.9,1,0.8S0.9,0.5,0.7,0.5z M0.7,0.6l0,0.1L0.7,0.6h0.2v0
		c0,0,0,0,0,0c0,0,0,0,0,0v0.1c0,0,0,0,0,0c0,0,0,0,0,0v0H0.8v0c0,0,0,0,0,0c0,0,0,0,0,0L0.7,0.6h0.1L0.8,0.8h0L0.7,0.6L0.7,0.6z
		 M0.5,0.9C0.5,0.9,0.5,0.9,0.5,0.9C0.5,0.9,0.5,0.9,0.5,0.9C0.5,0.9,0.5,0.9,0.5,0.9L0.5,0.9L0.5,0.9L0.5,0.9
		C0.5,0.9,0.5,0.9,0.5,0.9C0.5,0.9,0.5,0.9,0.5,0.9C0.5,0.9,0.5,0.9,0.5,0.9C0.5,0.9,0.5,0.9,0.5,0.9C0.5,0.9,0.5,0.9,0.5,0.9
		L0.5,0.9L0.5,0.9L0.5,0.9C0.5,0.8,0.5,0.8,0.5,0.9L0.5,0.9C0.5,0.8,0.5,0.8,0.5,0.9C0.5,0.8,0.5,0.8,0.5,0.9
		C0.5,0.8,0.5,0.8,0.5,0.9C0.5,0.8,0.5,0.8,0.5,0.9C0.5,0.8,0.5,0.8,0.5,0.9C0.5,0.8,0.5,0.8,0.5,0.9C0.5,0.8,0.5,0.8,0.5,0.9
		C0.5,0.8,0.5,0.8,0.5,0.9C0.5,0.8,0.5,0.8,0.5,0.9L0.5,0.9C0.5,0.8,0.5,0.8,0.5,0.9C0.5,0.8,0.5,0.8,0.5,0.9
		C0.5,0.8,0.5,0.8,0.5,0.9C0.5,0.8,0.5,0.8,0.5,0.9C0.5,0.8,0.5,0.8,0.5,0.9C0.5,0.8,0.5,0.8,0.5,0.9L0.5,0.9
		C0.5,0.8,0.5,0.8,0.5,0.9L0.5,0.9C0.5,0.8,0.5,0.8,0.5,0.9C0.5,0.8,0.5,0.8,0.5,0.9C0.5,0.8,0.5,0.8,0.5,0.9L0.5,0.9L0.5,0.9
		L0.5,0.9C0.5,0.8,0.5,0.8,0.5,0.9C0.5,0.8,0.5,0.8,0.5,0.9C0.5,0.8,0.5,0.8,0.5,0.9C0.5,0.8,0.5,0.8,0.5,0.9
		C0.5,0.8,0.5,0.8,0.5,0.9L0.5,0.9C0.5,0.8,0.5,0.8,0.5,0.9C0.5,0.8,0.5,0.8,0.5,0.9C0.5,0.8,0.5,0.8,0.5,0.9
		C0.5,0.8,0.5,0.8,0.5,0.9C0.5,0.8,0.5,0.8,0.5,0.9L0.5,0.9C0.5,0.8,0.5,0.8,0.5,0.9C0.5,0.8,0.5,0.8,0.5,0.9
		C0.5,0.8,0.5,0.8,0.5,0.9C0.5,0.8,0.5,0.8,0.5,0.9L0.5,0.9L0.5,0.9L0.5,0.9C0.5,0.9,0.5,0.9,0.5,0.9z M0.6,0.8L0.6,0.8L0.6,0.8
		C0.6,0.9,0.6,0.9,0.6,0.8C0.6,0.9,0.6,0.9,0.6,0.8C0.6,0.9,0.6,0.9,0.6,0.8C0.6,0.9,0.6,0.9,0.6,0.8L0.6,0.8
		C0.5,0.9,0.5,0.9,0.6,0.8C0.5,0.9,0.5,0.9,0.6,0.8L0.6,0.8L0.6,0.8C0.5,0.8,0.5,0.8,0.6,0.8C0.5,0.8,0.5,0.8,0.6,0.8
		C0.5,0.8,0.5,0.8,0.6,0.8C0.5,0.8,0.5,0.8,0.6,0.8L0.6,0.8C0.6,0.8,0.6,0.8,0.6,0.8C0.6,0.8,0.6,0.8,0.6,0.8z M0.6,0.9
		C0.6,0.9,0.6,0.9,0.6,0.9C0.6,0.9,0.6,0.9,0.6,0.9C0.6,0.9,0.6,0.9,0.6,0.9L0.6,0.9L0.6,0.9L0.6,0.9C0.6,0.9,0.6,0.9,0.6,0.9
		C0.6,0.9,0.6,0.9,0.6,0.9C0.6,0.9,0.6,0.9,0.6,0.9C0.6,0.9,0.6,0.9,0.6,0.9C0.6,0.9,0.6,0.9,0.6,0.9L0.6,0.9L0.6,0.9L0.6,0.9
		C0.6,0.8,0.6,0.8,0.6,0.9L0.6,0.9C0.6,0.8,0.6,0.8,0.6,0.9C0.6,0.8,0.6,0.8,0.6,0.9C0.6,0.8,0.6,0.8,0.6,0.9
		C0.6,0.8,0.6,0.8,0.6,0.9C0.6,0.8,0.6,0.8,0.6,0.9C0.6,0.8,0.6,0.8,0.6,0.9C0.6,0.8,0.6,0.8,0.6,0.9C0.6,0.8,0.6,0.8,0.6,0.9
		C0.6,0.8,0.6,0.8,0.6,0.9L0.6,0.9C0.6,0.8,0.6,0.8,0.6,0.9C0.6,0.8,0.6,0.8,0.6,0.9C0.6,0.8,0.6,0.8,0.6,0.9
		C0.6,0.8,0.6,0.8,0.6,0.9C0.6,0.8,0.6,0.8,0.6,0.9C0.6,0.8,0.6,0.8,0.6,0.9L0.6,0.9C0.6,0.8,0.6,0.8,0.6,0.9L0.6,0.9
		C0.6,0.8,0.6,0.8,0.6,0.9C0.6,0.8,0.6,0.8,0.6,0.9C0.6,0.8,0.6,0.8,0.6,0.9L0.6,0.9L0.6,0.9L0.6,0.9C0.6,0.8,0.6,0.8,0.6,0.9
		C0.6,0.8,0.6,0.8,0.6,0.9C0.6,0.8,0.6,0.8,0.6,0.9C0.6,0.8,0.6,0.8,0.6,0.9C0.6,0.8,0.6,0.8,0.6,0.9L0.6,0.9
		C0.6,0.8,0.6,0.8,0.6,0.9C0.6,0.8,0.6,0.8,0.6,0.9C0.6,0.8,0.6,0.8,0.6,0.9C0.6,0.8,0.6,0.8,0.6,0.9C0.6,0.8,0.6,0.8,0.6,0.9
		L0.6,0.9C0.6,0.8,0.6,0.8,0.6,0.9C0.6,0.8,0.6,0.8,0.6,0.9C0.6,0.8,0.6,0.8,0.6,0.9C0.6,0.8,0.6,0.8,0.6,0.9L0.6,0.9L0.6,0.9
		L0.6,0.9C0.6,0.9,0.6,0.9,0.6,0.9z M0.6,0.8C0.6,0.8,0.6,0.8,0.6,0.8C0.6,0.8,0.6,0.8,0.6,0.8l0.1-0.2l0,0l0,0.1h0.1l0,0.1L0.6,0.8
		L0.6,0.8L0.6,0.8C0.7,0.8,0.7,0.8,0.6,0.8C0.7,0.8,0.6,0.8,0.6,0.8C0.7,0.8,0.7,0.8,0.6,0.8L0.6,0.8L0.6,0.8L0.6,0.8z M0.6,0.9
		C0.6,0.9,0.6,0.9,0.6,0.9C0.6,0.9,0.6,0.9,0.6,0.9C0.6,0.9,0.6,0.9,0.6,0.9C0.6,0.9,0.6,0.9,0.6,0.9L0.6,0.9L0.6,0.9L0.6,0.9
		L0.6,0.9L0.6,0.9L0.6,0.9C0.6,0.9,0.6,0.9,0.6,0.9L0.6,0.9C0.6,0.9,0.6,0.9,0.6,0.9C0.6,0.9,0.6,0.9,0.6,0.9
		C0.6,0.9,0.6,0.9,0.6,0.9C0.6,0.9,0.6,0.9,0.6,0.9L0.6,0.9C0.6,0.9,0.6,0.9,0.6,0.9C0.6,0.9,0.6,0.9,0.6,0.9L0.6,0.9L0.6,0.9
		C0.6,0.9,0.6,0.9,0.6,0.9C0.6,0.9,0.6,0.9,0.6,0.9C0.6,0.9,0.6,0.9,0.6,0.9C0.6,0.9,0.6,0.9,0.6,0.9L0.6,0.9
		C0.6,0.9,0.6,0.9,0.6,0.9C0.6,0.9,0.6,0.9,0.6,0.9C0.6,0.9,0.6,0.9,0.6,0.9C0.6,0.9,0.6,0.9,0.6,0.9C0.6,0.9,0.6,0.9,0.6,0.9
		C0.6,0.9,0.6,0.9,0.6,0.9C0.6,0.9,0.6,0.9,0.6,0.9L0.6,0.9L0.6,0.9L0.6,0.9C0.6,0.9,0.6,0.9,0.6,0.9C0.6,0.9,0.6,0.9,0.6,0.9
		C0.6,0.9,0.6,0.9,0.6,0.9C0.6,0.9,0.6,0.9,0.6,0.9C0.6,0.9,0.6,0.9,0.6,0.9C0.6,0.9,0.6,0.9,0.6,0.9C0.6,0.9,0.6,0.9,0.6,0.9
		C0.6,0.9,0.6,0.9,0.6,0.9L0.6,0.9C0.6,0.9,0.6,0.9,0.6,0.9L0.6,0.9C0.6,0.9,0.6,0.9,0.6,0.9L0.6,0.9L0.6,0.9
		C0.6,0.9,0.6,0.9,0.6,0.9C0.6,0.9,0.6,0.9,0.6,0.9C0.6,0.9,0.6,0.9,0.6,0.9C0.6,0.9,0.6,0.9,0.6,0.9L0.6,0.9
		C0.6,0.8,0.6,0.8,0.6,0.9C0.6,0.8,0.6,0.8,0.6,0.9C0.6,0.8,0.6,0.8,0.6,0.9C0.6,0.8,0.6,0.8,0.6,0.9L0.6,0.9L0.6,0.9
		C0.6,0.8,0.6,0.8,0.6,0.9C0.6,0.8,0.6,0.8,0.6,0.9C0.6,0.8,0.6,0.8,0.6,0.9C0.6,0.8,0.6,0.8,0.6,0.9C0.6,0.8,0.6,0.8,0.6,0.9
		L0.6,0.9z M0.7,0.9C0.7,0.9,0.7,0.9,0.7,0.9C0.7,0.9,0.7,0.9,0.7,0.9C0.7,0.9,0.7,0.9,0.7,0.9C0.7,0.9,0.7,0.9,0.7,0.9L0.7,0.9
		L0.7,0.9L0.7,0.9L0.7,0.9L0.7,0.9L0.7,0.9C0.7,0.9,0.7,0.9,0.7,0.9L0.7,0.9C0.7,0.9,0.7,0.9,0.7,0.9C0.7,0.9,0.7,0.9,0.7,0.9
		C0.7,0.9,0.7,0.9,0.7,0.9C0.7,0.9,0.7,0.9,0.7,0.9L0.7,0.9C0.7,0.9,0.7,0.9,0.7,0.9C0.7,0.9,0.7,0.9,0.7,0.9L0.7,0.9L0.7,0.9
		C0.7,0.9,0.7,0.9,0.7,0.9C0.7,0.9,0.7,0.9,0.7,0.9C0.7,0.9,0.7,0.9,0.7,0.9C0.7,0.9,0.7,0.9,0.7,0.9L0.7,0.9
		C0.7,0.9,0.7,0.9,0.7,0.9C0.7,0.9,0.7,0.9,0.7,0.9C0.7,0.9,0.7,0.9,0.7,0.9C0.7,0.9,0.7,0.9,0.7,0.9C0.7,0.9,0.7,0.9,0.7,0.9
		C0.7,0.9,0.7,0.9,0.7,0.9C0.7,0.9,0.7,0.9,0.7,0.9L0.7,0.9L0.7,0.9L0.7,0.9C0.7,0.9,0.7,0.9,0.7,0.9C0.7,0.9,0.7,0.9,0.7,0.9
		C0.7,0.9,0.7,0.9,0.7,0.9C0.7,0.9,0.7,0.9,0.7,0.9C0.7,0.9,0.7,0.9,0.7,0.9C0.7,0.9,0.7,0.9,0.7,0.9C0.7,0.9,0.7,0.9,0.7,0.9
		C0.7,0.9,0.7,0.9,0.7,0.9L0.7,0.9C0.7,0.9,0.7,0.9,0.7,0.9L0.7,0.9C0.7,0.9,0.7,0.9,0.7,0.9L0.7,0.9L0.7,0.9
		C0.7,0.9,0.7,0.9,0.7,0.9C0.7,0.9,0.7,0.9,0.7,0.9C0.7,0.9,0.7,0.9,0.7,0.9C0.7,0.9,0.7,0.9,0.7,0.9L0.7,0.9
		C0.7,0.8,0.7,0.8,0.7,0.9C0.7,0.8,0.7,0.8,0.7,0.9C0.7,0.8,0.7,0.8,0.7,0.9C0.7,0.8,0.7,0.8,0.7,0.9L0.7,0.9L0.7,0.9
		C0.7,0.8,0.7,0.8,0.7,0.9C0.7,0.8,0.7,0.8,0.7,0.9C0.7,0.8,0.7,0.8,0.7,0.9C0.7,0.8,0.7,0.8,0.7,0.9C0.7,0.8,0.7,0.8,0.7,0.9
		L0.7,0.9z M0.7,0.9C0.7,0.9,0.7,0.9,0.7,0.9C0.7,0.9,0.7,0.9,0.7,0.9C0.7,0.9,0.7,0.9,0.7,0.9C0.7,0.8,0.7,0.8,0.7,0.9
		C0.7,0.8,0.7,0.8,0.7,0.9C0.7,0.8,0.7,0.8,0.7,0.9C0.7,0.8,0.7,0.8,0.7,0.9C0.7,0.9,0.7,0.9,0.7,0.9z M0.8,0.9
		C0.8,0.9,0.8,0.9,0.8,0.9C0.8,0.9,0.8,0.9,0.8,0.9C0.8,0.9,0.8,0.9,0.8,0.9C0.8,0.9,0.8,0.9,0.8,0.9L0.8,0.9L0.8,0.9L0.8,0.9
		C0.8,0.9,0.8,0.9,0.8,0.9C0.8,0.9,0.8,0.9,0.8,0.9C0.8,0.9,0.8,0.9,0.8,0.9C0.8,0.9,0.8,0.9,0.8,0.9L0.8,0.9
		C0.8,0.8,0.8,0.8,0.8,0.9C0.8,0.8,0.8,0.8,0.8,0.9C0.8,0.8,0.8,0.8,0.8,0.9C0.8,0.8,0.8,0.8,0.8,0.9L0.8,0.9L0.8,0.9L0.8,0.9
		C0.8,0.8,0.8,0.8,0.8,0.9C0.8,0.8,0.8,0.8,0.8,0.9C0.8,0.8,0.8,0.8,0.8,0.9C0.8,0.8,0.8,0.8,0.8,0.9L0.8,0.9z M0.8,0.9
		C0.8,0.9,0.8,0.9,0.8,0.9C0.8,0.9,0.8,0.9,0.8,0.9C0.8,0.9,0.8,0.9,0.8,0.9L0.8,0.9L0.8,0.9L0.8,0.9C0.8,0.9,0.8,0.9,0.8,0.9
		C0.8,0.9,0.8,0.9,0.8,0.9C0.8,0.9,0.8,0.9,0.8,0.9C0.8,0.9,0.8,0.9,0.8,0.9C0.8,0.9,0.8,0.9,0.8,0.9L0.8,0.9L0.8,0.9L0.8,0.9
		C0.8,0.8,0.8,0.8,0.8,0.9L0.8,0.9C0.8,0.8,0.8,0.8,0.8,0.9C0.8,0.8,0.8,0.8,0.8,0.9C0.8,0.8,0.8,0.8,0.8,0.9
		C0.8,0.8,0.8,0.8,0.8,0.9C0.8,0.8,0.8,0.8,0.8,0.9C0.8,0.8,0.8,0.8,0.8,0.9C0.8,0.8,0.8,0.8,0.8,0.9C0.8,0.8,0.8,0.8,0.8,0.9
		C0.8,0.8,0.8,0.8,0.8,0.9L0.8,0.9C0.8,0.8,0.8,0.8,0.8,0.9C0.8,0.8,0.8,0.8,0.8,0.9C0.8,0.8,0.8,0.8,0.8,0.9
		C0.8,0.8,0.8,0.8,0.8,0.9C0.8,0.8,0.8,0.8,0.8,0.9C0.8,0.8,0.8,0.8,0.8,0.9L0.8,0.9C0.8,0.8,0.8,0.8,0.8,0.9L0.8,0.9
		C0.8,0.8,0.8,0.8,0.8,0.9C0.8,0.8,0.8,0.8,0.8,0.9C0.8,0.8,0.8,0.8,0.8,0.9L0.8,0.9L0.8,0.9L0.8,0.9C0.8,0.8,0.8,0.8,0.8,0.9
		C0.8,0.8,0.8,0.8,0.8,0.9C0.8,0.8,0.8,0.8,0.8,0.9C0.8,0.8,0.8,0.8,0.8,0.9C0.8,0.8,0.8,0.8,0.8,0.9L0.8,0.9
		C0.8,0.8,0.8,0.8,0.8,0.9C0.8,0.8,0.8,0.8,0.8,0.9C0.8,0.8,0.8,0.8,0.8,0.9C0.8,0.8,0.8,0.8,0.8,0.9C0.8,0.8,0.8,0.8,0.8,0.9
		L0.8,0.9C0.8,0.8,0.8,0.8,0.8,0.9C0.8,0.8,0.8,0.8,0.8,0.9C0.8,0.8,0.8,0.8,0.8,0.9C0.8,0.8,0.8,0.8,0.8,0.9L0.8,0.9L0.8,0.9
		L0.8,0.9C0.8,0.9,0.8,0.9,0.8,0.9z M0.9,0.9C0.9,0.9,0.9,0.9,0.9,0.9C0.9,0.9,0.9,0.9,0.9,0.9C0.9,0.9,0.9,0.9,0.9,0.9
		C0.9,0.9,0.9,0.9,0.9,0.9L0.9,0.9L0.9,0.9L0.9,0.9L0.9,0.9L0.9,0.9L0.9,0.9C0.9,0.9,0.9,0.9,0.9,0.9L0.9,0.9
		C0.9,0.9,0.9,0.9,0.9,0.9C0.9,0.9,0.9,0.9,0.9,0.9C0.9,0.9,0.9,0.9,0.9,0.9C0.9,0.9,0.9,0.9,0.9,0.9L0.9,0.9
		C0.9,0.9,0.9,0.9,0.9,0.9C0.9,0.9,0.9,0.9,0.9,0.9L0.9,0.9L0.9,0.9C0.9,0.9,0.9,0.9,0.9,0.9C0.9,0.9,0.9,0.9,0.9,0.9
		C0.9,0.9,0.9,0.9,0.9,0.9C0.9,0.9,0.9,0.9,0.9,0.9L0.9,0.9C0.9,0.9,0.9,0.9,0.9,0.9C0.9,0.9,0.9,0.9,0.9,0.9
		C0.9,0.9,0.9,0.9,0.9,0.9C0.9,0.9,0.9,0.9,0.9,0.9C0.9,0.9,0.9,0.9,0.9,0.9C0.9,0.9,0.9,0.9,0.9,0.9C0.9,0.9,0.9,0.9,0.9,0.9
		L0.9,0.9L0.9,0.9L0.9,0.9C0.9,0.9,0.9,0.9,0.9,0.9C0.9,0.9,0.9,0.9,0.9,0.9C0.9,0.9,0.9,0.9,0.9,0.9C0.9,0.9,0.9,0.9,0.9,0.9
		C0.9,0.9,0.9,0.9,0.9,0.9C0.9,0.9,0.8,0.9,0.9,0.9C0.8,0.9,0.8,0.9,0.9,0.9C0.8,0.9,0.8,0.9,0.9,0.9L0.9,0.9
		C0.8,0.9,0.8,0.9,0.9,0.9L0.9,0.9C0.8,0.9,0.8,0.9,0.9,0.9L0.9,0.9L0.9,0.9C0.8,0.9,0.8,0.9,0.9,0.9C0.8,0.9,0.8,0.9,0.9,0.9
		C0.8,0.9,0.8,0.9,0.9,0.9C0.8,0.9,0.8,0.9,0.9,0.9L0.9,0.9C0.8,0.8,0.8,0.8,0.9,0.9C0.8,0.8,0.8,0.8,0.9,0.9
		C0.8,0.8,0.8,0.8,0.9,0.9C0.8,0.8,0.8,0.8,0.9,0.9L0.9,0.9L0.9,0.9C0.9,0.8,0.9,0.8,0.9,0.9C0.9,0.8,0.9,0.8,0.9,0.9
		C0.9,0.8,0.9,0.8,0.9,0.9C0.9,0.8,0.9,0.8,0.9,0.9C0.9,0.8,0.9,0.8,0.9,0.9L0.9,0.9z M0.9,0.9C0.9,0.9,0.9,0.9,0.9,0.9
		C0.9,0.9,0.9,0.9,0.9,0.9C0.9,0.9,0.9,0.9,0.9,0.9C0.9,0.9,0.9,0.9,0.9,0.9L0.9,0.9L0.9,0.9L0.9,0.9L0.9,0.9L0.9,0.9L0.9,0.9
		C0.9,0.9,0.9,0.9,0.9,0.9L0.9,0.9C0.9,0.9,0.9,0.9,0.9,0.9C0.9,0.9,0.9,0.9,0.9,0.9C0.9,0.9,0.9,0.9,0.9,0.9
		C0.9,0.9,0.9,0.9,0.9,0.9L0.9,0.9C0.9,0.9,0.9,0.9,0.9,0.9C0.9,0.9,0.9,0.9,0.9,0.9L0.9,0.9L0.9,0.9C0.9,0.9,0.9,0.9,0.9,0.9
		C0.9,0.9,0.9,0.9,0.9,0.9C0.9,0.9,0.9,0.9,0.9,0.9C0.9,0.9,0.9,0.9,0.9,0.9L0.9,0.9C0.9,0.9,0.9,0.9,0.9,0.9
		C0.9,0.9,0.9,0.9,0.9,0.9C0.9,0.9,0.9,0.9,0.9,0.9C0.9,0.9,0.9,0.9,0.9,0.9C0.9,0.9,0.9,0.9,0.9,0.9C0.9,0.9,0.9,0.9,0.9,0.9
		C0.9,0.9,0.9,0.9,0.9,0.9L0.9,0.9L0.9,0.9L0.9,0.9C0.9,0.9,0.9,0.9,0.9,0.9C0.9,0.9,0.9,0.9,0.9,0.9C0.9,0.9,0.9,0.9,0.9,0.9
		C0.9,0.9,0.9,0.9,0.9,0.9C0.9,0.9,0.9,0.9,0.9,0.9C0.9,0.9,0.9,0.9,0.9,0.9C0.9,0.9,0.9,0.9,0.9,0.9C0.9,0.9,0.9,0.9,0.9,0.9
		L0.9,0.9C0.9,0.9,0.9,0.9,0.9,0.9L0.9,0.9C0.9,0.9,0.9,0.9,0.9,0.9L0.9,0.9L0.9,0.9C0.9,0.9,0.9,0.9,0.9,0.9
		C0.9,0.9,0.9,0.9,0.9,0.9C0.9,0.9,0.9,0.9,0.9,0.9C0.9,0.9,0.9,0.9,0.9,0.9L0.9,0.9C0.9,0.8,0.9,0.8,0.9,0.9
		C0.9,0.8,0.9,0.8,0.9,0.9C0.9,0.8,0.9,0.8,0.9,0.9C0.9,0.8,0.9,0.8,0.9,0.9L0.9,0.9L0.9,0.9C0.9,0.8,0.9,0.8,0.9,0.9
		C0.9,0.8,0.9,0.8,0.9,0.9C0.9,0.8,0.9,0.8,0.9,0.9C0.9,0.8,0.9,0.8,0.9,0.9C0.9,0.8,0.9,0.8,0.9,0.9L0.9,0.9z M0.9,0.8
		C0.9,0.8,0.9,0.8,0.9,0.8C1,0.9,1,0.9,0.9,0.8C1,0.9,1,0.9,0.9,0.8C0.9,0.9,0.9,0.9,0.9,0.8L0.9,0.8L0.9,0.8L0.9,0.8
		C1,0.9,1,0.9,0.9,0.8C1,0.9,1,0.9,0.9,0.8C1,0.9,1,0.9,0.9,0.8C1,0.9,1,0.9,0.9,0.8L0.9,0.8C0.9,0.9,0.9,0.9,0.9,0.8
		C0.9,0.9,0.9,0.9,0.9,0.8L0.9,0.8C0.9,0.8,0.9,0.8,0.9,0.8C0.9,0.8,0.9,0.8,0.9,0.8L0.9,0.8L0.9,0.8C1,0.8,1,0.8,0.9,0.8
		C1,0.8,1,0.8,0.9,0.8C1,0.8,1,0.8,0.9,0.8C1,0.8,1,0.8,0.9,0.8L0.9,0.8L0.9,0.8L0.9,0.8L0.9,0.8z M1,0.9L1,0.9L1,0.9
		C1,0.9,1,0.9,1,0.9C1,0.9,1,0.9,1,0.9L1,0.9C1,0.8,1,0.8,1,0.9C1,0.8,1,0.8,1,0.9L1,0.9C1,0.8,1,0.8,1,0.9C1,0.8,1,0.8,1,0.9
		C1,0.9,1,0.9,1,0.9C1,0.9,1,0.9,1,0.9z"/>
	<polygon fill="#FFFFFF" points="0.8,0.9 0.8,0.9 0.8,0.8 	"/>
	<polygon fill="#FFFFFF" points="0.6,0.9 0.6,0.9 0.6,0.8 	"/>
	<polygon fill="#FFFFFF" points="1,0.8 1,0.8 1,0.9 1,0.9 1,0.9 1,0.9 1,0.8 	"/>
	<polygon fill="#FFFFFF" points="0.5,0.9 0.5,0.9 0.5,0.8 	"/>
</g>
</svg>
